<?xml version="1.0" encoding="UTF-8"?>
<svg id="Layer_1" xmlns="http://www.w3.org/2000/svg" xmlns:xlink="http://www.w3.org/1999/xlink" version="1.1" viewBox="0 0 800 800">
  <!-- Generator: Adobe Illustrator 29.3.1, SVG Export Plug-In . SVG Version: 2.1.0 Build 151)  -->
  <defs>
    <style>
      .st0 {
        fill: #fff;
      }
    </style>
  </defs>
  <path class="st0" d="M400,0C179.1,0,0,179.1,0,400s179.1,400,400,400,400-179.1,400-400S620.9,0,400,0ZM649.7,649.5c-32.5,32.5-70.2,58-112.2,75.6-43.4,18.4-89.7,27.7-137.5,27.7s-93.9-9.4-137.5-27.7c-42-17.8-79.8-43.3-112.2-75.6-32.5-32.5-58-70.2-75.6-112.2-18.4-43.4-27.8-89.7-27.8-137.3s9.4-93.9,27.7-137.5c17.8-42,43.3-79.8,75.6-112.2,32.7-32.5,70.3-58,112.3-75.8,43.6-18.3,89.8-27.7,137.5-27.7s93.9,9.4,137.5,27.7c42,17.8,79.8,43.3,112.2,75.6,32.5,32.5,58,70.2,75.6,112.2,18.4,43.4,27.7,89.7,27.7,137.5s-9.4,93.9-27.7,137.5c-17.8,42-43.3,79.8-75.6,112.2Z"/>
  <path class="st0" d="M452.8,263.6c16.1,0,33.3,5,33.3,5l10.3-61.3s-21.9-7.5-74.1-7.5-50.6,12.2-64.2,30.2c-12.8,17-13.3,44.4-13.3,62v40.2h-41.4v59.8h41.4v207.8h77.5v-207.8h61.4l4.5-59.8h-65.9v-46.7c0-16.1,14.4-21.9,30.5-21.9Z"/>
</svg>