<?xml version="1.0" encoding="UTF-8"?>
<svg id="Layer_1" xmlns="http://www.w3.org/2000/svg" xmlns:xlink="http://www.w3.org/1999/xlink" version="1.1" viewBox="0 0 800 800">
  <!-- Generator: Adobe Illustrator 29.3.1, SVG Export Plug-In . SVG Version: 2.1.0 Build 151)  -->
  <defs>
    <style>
      .st0 {
        fill: #fff;
        fill-rule: evenodd;
      }
    </style>
  </defs>
  <g id="Page-1">
    <g id="Dribbble-Light-Preview">
      <g id="icons">
        <path id="instagram-_x5B__x23_167_x5D_" class="st0" d="M234.8,4.9c-65.1,2.9-121.6,18.9-167.1,64.2C21.9,114.8,6.2,171.4,3.3,235.9c-1.8,40.2-12.5,344.1,18.5,423.8,20.9,53.8,62.2,95.1,116.4,116.1,25.3,9.8,54.2,16.5,96.6,18.5,354.4,16,485.8,7.3,541.2-134.6,9.8-25.3,16.6-54.1,18.5-96.4,16.2-355.3-2.6-432.4-64.4-494.1C681.1,20.3,623.4-13,234.8,4.9M238,722.7c-38.8-1.7-59.9-8.2-73.9-13.7-35.3-13.7-61.9-40.2-75.5-75.3-23.6-60.5-15.8-348.1-13.7-394.6,2.1-45.6,11.3-87.2,43.5-119.4,39.8-39.7,91.2-59.2,441.4-43.4,45.7,2.1,87.4,11.3,119.7,43.4,39.8,39.7,59.5,91.5,43.5,440.3-1.8,38.7-8.2,59.7-13.7,73.7-36,92.3-118.9,105.1-471.1,89M563.6,187.6c0,26.3,21.4,47.7,47.8,47.7s47.8-21.4,47.8-47.7-21.4-47.6-47.8-47.6-47.8,21.4-47.8,47.6M194.5,399.5c0,112.6,91.5,203.9,204.4,203.9s204.4-91.3,204.4-203.9-91.5-203.8-204.4-203.8-204.4,91.2-204.4,203.8M266.2,399.5c0-73,59.4-132.3,132.7-132.3s132.7,59.3,132.7,132.3-59.4,132.4-132.7,132.4-132.7-59.3-132.7-132.4"/>
      </g>
    </g>
  </g>
</svg>